<svg version="1.1" id="Layer_1" xmlns="http://www.w3.org/2000/svg" xmlns:xlink="http://www.w3.org/1999/xlink" x="0px" y="0px"
	 width="100%" viewBox="0 0 512 512" enable-background="new 0 0 512 512" xml:space="preserve">
<path fill="#209CEE" opacity="1.000000" stroke="none" 
	d="
M225.000000,0.999996 
	C246.020889,1.000000 267.041779,1.000000 288.200928,1.341244 
	C289.181000,2.117913 289.984772,2.817688 290.870972,2.945406 
	C296.205414,3.714212 301.651123,3.936997 306.890106,5.103641 
	C332.498932,10.806364 357.067932,19.285645 380.199127,31.950512 
	C407.782898,47.053288 431.484009,66.715096 451.998199,90.440643 
	C467.459106,108.321861 480.051575,127.972839 489.880157,149.463211 
	C500.625702,172.958572 508.120239,197.350693 511.084045,223.077805 
	C511.165253,223.782761 512.336853,224.362091 513.000000,225.000000 
	C513.000000,246.020889 513.000000,267.041779 512.658691,288.200928 
	C511.882050,289.181061 511.182312,289.984863 511.054565,290.871094 
	C510.285767,296.205536 510.073212,301.654633 508.894592,306.889771 
	C503.133850,332.476776 494.774017,357.081024 482.060913,380.204926 
	C466.910492,407.762085 447.241974,431.434875 423.576599,452.017944 
	C408.092926,465.484985 391.188660,476.783081 372.912231,485.938477 
	C347.031586,498.903137 319.828583,507.820892 290.922119,511.084106 
	C290.218292,511.163574 289.637939,512.336853 289.000000,513.000000 
	C267.979095,513.000000 246.958206,513.000000 225.799103,512.658752 
	C224.819061,511.882080 224.015366,511.182312 223.129211,511.054565 
	C217.794876,510.285767 212.351044,510.057434 207.110062,508.897369 
	C181.488953,503.226166 156.924835,494.743042 133.796753,482.054535 
	C106.226562,466.928986 82.565102,447.241699 61.982407,423.576996 
	C48.515572,408.093658 37.227730,391.184937 28.059650,372.915283 
	C15.074208,347.038696 6.150678,319.837830 2.915811,290.921906 
	C2.837134,290.218628 1.663129,289.637878 0.999998,289.000000 
	C1.000000,267.979095 1.000000,246.958206 1.341245,225.799088 
	C2.117912,224.819061 2.817691,224.015350 2.945403,223.129211 
	C3.714200,217.794876 3.942588,212.351044 5.102661,207.110046 
	C10.773808,181.488876 19.256948,156.924698 31.945536,133.796646 
	C47.071136,106.226547 66.758011,82.564781 90.423019,61.982311 
	C105.906502,48.515671 122.815109,37.227734 141.084732,28.059620 
	C166.961304,15.074152 194.162140,6.150686 223.078064,2.915802 
	C223.781357,2.837126 224.362091,1.663125 225.000000,0.999996 
M244.804230,359.085297 
	C247.685791,320.999023 238.467590,286.827789 212.434784,259.351288 
	C222.083740,244.818756 231.652420,231.199142 240.350204,217.044403 
	C246.745163,206.637238 251.137085,195.276550 251.050659,182.672104 
	C250.930893,165.201035 243.942444,150.457306 233.399689,136.982300 
	C231.737991,134.858429 230.821854,131.894547 230.316818,129.178513 
	C229.406052,124.280579 229.331680,119.227783 228.432846,114.326820 
	C226.624878,104.469063 218.748642,98.095436 208.710159,97.964577 
	C200.876450,97.862450 193.982605,100.712105 187.859344,105.241264 
	C171.020325,117.696472 159.032288,134.162964 149.714981,152.673843 
	C138.152573,175.645111 139.337372,198.299896 152.220047,220.359085 
	C156.405823,227.526413 161.177399,234.351624 165.826569,241.558914 
	C164.825409,242.620804 163.666306,243.784958 162.579391,245.013016 
	C149.558823,259.724182 135.874893,273.910797 123.693680,289.287628 
	C105.272659,312.541260 100.213463,338.617249 110.030785,367.267456 
	C117.700645,389.650665 130.355560,407.068756 154.267120,413.441620 
	C172.740875,418.365204 191.282166,417.663940 209.258270,410.858917 
	C222.245026,405.942627 232.312073,397.185059 237.716370,384.321716 
	C240.962006,376.596436 242.414505,368.117828 244.804230,359.085297 
M373.332428,256.358002 
	C381.559875,283.784271 371.560089,324.356628 341.537689,345.964569 
	C340.176758,346.944092 338.508392,347.496490 335.700439,348.879791 
	C336.442780,345.424469 336.621735,343.306335 337.357910,341.403809 
	C339.638428,335.510376 342.506073,329.820007 344.441528,323.823517 
	C346.622131,317.067596 348.382477,310.123413 349.573853,303.132996 
	C349.929047,301.048981 347.756714,298.534241 346.742462,296.216827 
	C344.587311,297.190002 341.940918,297.661285 340.353821,299.214783 
	C326.154144,313.114014 311.271057,326.104248 294.337433,336.668915 
	C288.220642,340.485107 284.399536,346.256439 285.109161,353.819244 
	C286.608002,369.792938 289.688263,385.498077 296.219391,400.218567 
	C302.654327,414.722229 314.854736,421.714081 329.894928,419.579559 
	C335.889496,418.728851 342.145050,417.158112 347.433228,414.329010 
	C371.435547,401.488129 388.217804,381.324310 398.652863,356.866364 
	C415.009064,318.530304 413.039795,279.543243 397.390778,241.250626 
	C385.848114,213.006119 365.941376,193.021759 336.952911,182.580627 
	C333.278931,181.257355 329.562500,180.052094 325.185150,178.560196 
	C328.889343,171.866745 332.321075,165.806488 335.605499,159.667450 
	C337.103485,156.867554 339.207062,155.892242 342.389343,155.682678 
	C363.469940,154.294540 382.095886,146.660263 398.500122,133.349930 
	C404.099579,128.806564 406.577576,123.344292 405.063202,116.252747 
	C402.308167,103.351341 387.044373,92.694214 374.219391,95.152992 
	C353.955139,99.038025 333.572418,99.993881 313.049927,98.434517 
	C308.807281,98.112152 306.064606,99.342438 304.600403,103.553352 
	C297.555817,123.813171 290.681915,144.139130 283.212250,164.242752 
	C271.806824,194.938950 281.131561,222.932419 293.431458,250.938171 
	C296.693420,247.835037 299.637207,244.911850 302.709991,242.131195 
	C324.123260,222.753571 363.752594,228.866226 373.332428,256.358002 
z"/>
<path fill="#000000" opacity="1.000000" stroke="none" 
	d="
M513.000000,224.531342 
	C512.336853,224.362091 511.165253,223.782761 511.084045,223.077805 
	C508.120239,197.350693 500.625702,172.958572 489.880157,149.463211 
	C480.051575,127.972839 467.459106,108.321861 451.998199,90.440643 
	C431.484009,66.715096 407.782898,47.053288 380.199127,31.950512 
	C357.067932,19.285645 332.498932,10.806364 306.890106,5.103641 
	C301.651123,3.936997 296.205414,3.714212 290.870972,2.945406 
	C289.984772,2.817688 289.181000,2.117913 288.669556,1.341244 
	C363.593719,1.000000 438.187408,1.000000 513.000000,1.000000 
	C513.000000,75.354088 513.000000,149.708389 513.000000,224.531342 
z"/>
<path fill="#000000" opacity="1.000000" stroke="none" 
	d="
M289.468658,513.000000 
	C289.637939,512.336853 290.218292,511.163574 290.922119,511.084106 
	C319.828583,507.820892 347.031586,498.903137 372.912231,485.938477 
	C391.188660,476.783081 408.092926,465.484985 423.576599,452.017944 
	C447.241974,431.434875 466.910492,407.762085 482.060913,380.204926 
	C494.774017,357.081024 503.133850,332.476776 508.894592,306.889771 
	C510.073212,301.654633 510.285767,296.205536 511.054565,290.871094 
	C511.182312,289.984863 511.882050,289.181061 512.658691,288.669586 
	C513.000000,363.593719 513.000000,438.187408 513.000000,513.000000 
	C438.645905,513.000000 364.291626,513.000000 289.468658,513.000000 
z"/>
<path fill="#000000" opacity="1.000000" stroke="none" 
	d="
M224.531342,0.999996 
	C224.362091,1.663125 223.781357,2.837126 223.078064,2.915802 
	C194.162140,6.150686 166.961304,15.074152 141.084732,28.059620 
	C122.815109,37.227734 105.906502,48.515671 90.423019,61.982311 
	C66.758011,82.564781 47.071136,106.226547 31.945536,133.796646 
	C19.256948,156.924698 10.773808,181.488876 5.102661,207.110046 
	C3.942588,212.351044 3.714200,217.794876 2.945403,223.129211 
	C2.817691,224.015350 2.117912,224.819061 1.341245,225.330429 
	C1.000000,150.406296 1.000000,75.812576 1.000000,1.000000 
	C75.354088,1.000000 149.708389,1.000000 224.531342,0.999996 
z"/>
<path fill="#000000" opacity="1.000000" stroke="none" 
	d="
M0.999998,289.468658 
	C1.663129,289.637878 2.837134,290.218628 2.915811,290.921906 
	C6.150678,319.837830 15.074208,347.038696 28.059650,372.915283 
	C37.227730,391.184937 48.515572,408.093658 61.982407,423.576996 
	C82.565102,447.241699 106.226562,466.928986 133.796753,482.054535 
	C156.924835,494.743042 181.488953,503.226166 207.110062,508.897369 
	C212.351044,510.057434 217.794876,510.285767 223.129211,511.054565 
	C224.015366,511.182312 224.819061,511.882080 225.330444,512.658752 
	C150.406296,513.000000 75.812599,513.000000 1.000000,513.000000 
	C1.000000,438.645905 1.000000,364.291626 0.999998,289.468658 
z"/>
<path fill="#FEFEFF" opacity="1.000000" stroke="none" 
	d="
M244.738556,359.531555 
	C242.414505,368.117828 240.962006,376.596436 237.716370,384.321716 
	C232.312073,397.185059 222.245026,405.942627 209.258270,410.858917 
	C191.282166,417.663940 172.740875,418.365204 154.267120,413.441620 
	C130.355560,407.068756 117.700645,389.650665 110.030785,367.267456 
	C100.213463,338.617249 105.272659,312.541260 123.693680,289.287628 
	C135.874893,273.910797 149.558823,259.724182 162.579391,245.013016 
	C163.666306,243.784958 164.825409,242.620804 165.826569,241.558914 
	C161.177399,234.351624 156.405823,227.526413 152.220047,220.359085 
	C139.337372,198.299896 138.152573,175.645111 149.714981,152.673843 
	C159.032288,134.162964 171.020325,117.696472 187.859344,105.241264 
	C193.982605,100.712105 200.876450,97.862450 208.710159,97.964577 
	C218.748642,98.095436 226.624878,104.469063 228.432846,114.326820 
	C229.331680,119.227783 229.406052,124.280579 230.316818,129.178513 
	C230.821854,131.894547 231.737991,134.858429 233.399689,136.982300 
	C243.942444,150.457306 250.930893,165.201035 251.050659,182.672104 
	C251.137085,195.276550 246.745163,206.637238 240.350204,217.044403 
	C231.652420,231.199142 222.083740,244.818756 212.434784,259.351288 
	C238.467590,286.827789 247.685791,320.999023 244.738556,359.531555 
M193.694153,278.227692 
	C178.225739,293.624573 162.689621,308.954376 147.332275,324.461243 
	C143.010635,328.824951 138.881210,333.465302 135.263199,338.416870 
	C131.095367,344.120911 132.343307,347.547272 139.299149,349.265533 
	C144.749588,350.611969 150.449020,351.272308 156.071198,351.542236 
	C173.777588,352.392273 191.011642,350.547852 206.708298,341.278717 
	C221.156860,332.746643 224.926819,320.692047 216.440933,306.278503 
	C210.810425,296.714905 203.756226,287.984711 197.220428,278.967590 
	C196.675919,278.216400 195.222824,278.123718 193.694153,278.227692 
M197.289658,208.790955 
	C207.019547,197.330734 215.768478,185.224167 222.250488,171.573273 
	C227.205048,161.139175 225.116455,155.060028 213.500046,149.334503 
	C200.968475,161.112991 187.891327,172.941269 175.482803,185.433701 
	C172.802597,188.132034 171.030853,193.383087 171.439682,197.178345 
	C172.507004,207.086319 178.684814,214.956619 183.930176,223.875381 
	C188.678986,218.537369 192.765717,213.943619 197.289658,208.790955 
z"/>
<path fill="#FEFEFF" opacity="1.000000" stroke="none" 
	d="
M373.207733,255.985947 
	C363.752594,228.866226 324.123260,222.753571 302.709991,242.131195 
	C299.637207,244.911850 296.693420,247.835037 293.431458,250.938171 
	C281.131561,222.932419 271.806824,194.938950 283.212250,164.242752 
	C290.681915,144.139130 297.555817,123.813171 304.600403,103.553352 
	C306.064606,99.342438 308.807281,98.112152 313.049927,98.434517 
	C333.572418,99.993881 353.955139,99.038025 374.219391,95.152992 
	C387.044373,92.694214 402.308167,103.351341 405.063202,116.252747 
	C406.577576,123.344292 404.099579,128.806564 398.500122,133.349930 
	C382.095886,146.660263 363.469940,154.294540 342.389343,155.682678 
	C339.207062,155.892242 337.103485,156.867554 335.605499,159.667450 
	C332.321075,165.806488 328.889343,171.866745 325.185150,178.560196 
	C329.562500,180.052094 333.278931,181.257355 336.952911,182.580627 
	C365.941376,193.021759 385.848114,213.006119 397.390778,241.250626 
	C413.039795,279.543243 415.009064,318.530304 398.652863,356.866364 
	C388.217804,381.324310 371.435547,401.488129 347.433228,414.329010 
	C342.145050,417.158112 335.889496,418.728851 329.894928,419.579559 
	C314.854736,421.714081 302.654327,414.722229 296.219391,400.218567 
	C289.688263,385.498077 286.608002,369.792938 285.109161,353.819244 
	C284.399536,346.256439 288.220642,340.485107 294.337433,336.668915 
	C311.271057,326.104248 326.154144,313.114014 340.353821,299.214783 
	C341.940918,297.661285 344.587311,297.190002 346.742462,296.216827 
	C347.756714,298.534241 349.929047,301.048981 349.573853,303.132996 
	C348.382477,310.123413 346.622131,317.067596 344.441528,323.823517 
	C342.506073,329.820007 339.638428,335.510376 337.357910,341.403809 
	C336.621735,343.306335 336.442780,345.424469 335.700439,348.879791 
	C338.508392,347.496490 340.176758,346.944092 341.537689,345.964569 
	C371.560089,324.356628 381.559875,283.784271 373.207733,255.985947 
z"/>
<path fill="#229DEE" opacity="1.000000" stroke="none" 
	d="
M193.943024,277.976379 
	C195.222824,278.123718 196.675919,278.216400 197.220428,278.967590 
	C203.756226,287.984711 210.810425,296.714905 216.440933,306.278503 
	C224.926819,320.692047 221.156860,332.746643 206.708298,341.278717 
	C191.011642,350.547852 173.777588,352.392273 156.071198,351.542236 
	C150.449020,351.272308 144.749588,350.611969 139.299149,349.265533 
	C132.343307,347.547272 131.095367,344.120911 135.263199,338.416870 
	C138.881210,333.465302 143.010635,328.824951 147.332275,324.461243 
	C162.689621,308.954376 178.225739,293.624573 193.943024,277.976379 
z"/>
<path fill="#229DEE" opacity="1.000000" stroke="none" 
	d="
M197.071045,209.070404 
	C192.765717,213.943619 188.678986,218.537369 183.930176,223.875381 
	C178.684814,214.956619 172.507004,207.086319 171.439682,197.178345 
	C171.030853,193.383087 172.802597,188.132034 175.482803,185.433701 
	C187.891327,172.941269 200.968475,161.112991 213.500046,149.334503 
	C225.116455,155.060028 227.205048,161.139175 222.250488,171.573273 
	C215.768478,185.224167 207.019547,197.330734 197.071045,209.070404 
z"/>
</svg>